<svg
    xmlns="http://www.w3.org/2000/svg"
    viewBox="0 0 271 246"
    id="vector">
    <defs>
        <clipPath id="clip_path">
            <path d="M 0 0 L 271 0 L 271 246 L 0 246 Z M 0 0"/>
        </clipPath>
        <clipPath id="clip_path_1">
            <path d="M 0 0 L 271 0 L 271 246 L 0 246 Z M 0 0"/>
        </clipPath>
        <clipPath id="clip_path_2">
            <path d="M 0 0 L 271 0 L 271 246 L 0 246 Z M 0 0"/>
        </clipPath>
        <clipPath id="clip_path_3">
            <path d="M 0 0 L 271 0 L 271 246 L 0 246 Z M 0 0"/>
        </clipPath>
        <clipPath id="clip_path_4">
            <path d="M 0 0 L 271 0 L 271 246 L 0 246 Z M 0 0"/>
        </clipPath>
        <clipPath id="clip_path_5">
            <path d="M 0 0 L 271 0 L 271 246 L 0 246 Z M 0 0"/>
        </clipPath>
        <clipPath id="clip_path_6">
            <path d="M 0 0 L 271 0 L 271 246 L 0 246 Z M 0 0"/>
        </clipPath>
        <clipPath id="clip_path_7">
            <path d="M 0 0 L 271 0 L 271 246 L 0 246 Z M 0 0"/>
        </clipPath>
        <clipPath id="clip_path_8">
            <path d="M 0 0 L 271 0 L 271 246 L 0 246 Z M 0 0"/>
        </clipPath>
        <clipPath id="clip_path_9">
            <path d="M 0 0 L 271 0 L 271 246 L 0 246 Z M 0 0"/>
        </clipPath>
        <clipPath id="clip_path_10">
            <path d="M 0 0 L 271 0 L 271 246 L 0 246 Z M 0 0"/>
        </clipPath>
        <clipPath id="clip_path_11">
            <path d="M 0 0 L 271 0 L 271 246 L 0 246 Z M 0 0"/>
        </clipPath>
        <clipPath id="clip_path_12">
            <path d="M 0 0 L 271 0 L 271 246 L 0 246 Z M 0 0"/>
        </clipPath>
        <clipPath id="clip_path_13">
            <path d="M 0 0 L 271 0 L 271 246 L 0 246 Z M 0 0"/>
        </clipPath>
        <clipPath id="clip_path_14">
            <path d="M 0 0 L 271 0 L 271 246 L 0 246 Z M 0 0"/>
        </clipPath>
        <clipPath id="clip_path_15">
            <path d="M 0 0 L 271 0 L 271 246 L 0 246 Z M 0 0"/>
        </clipPath>
        <clipPath id="clip_path_16">
            <path d="M 0 0 L 271 0 L 271 246 L 0 246 Z M 0 0"/>
        </clipPath>
        <clipPath id="clip_path_17">
            <path d="M 0 0 L 271 0 L 271 246 L 0 246 Z M 0 0"/>
        </clipPath>
        <clipPath id="clip_path_18">
            <path d="M 0 0 L 271 0 L 271 246 L 0 246 Z M 0 0"/>
        </clipPath>
        <clipPath id="clip_path_19">
            <path d="M 0 0 L 271 0 L 271 246 L 0 246 Z M 0 0"/>
        </clipPath>
        <clipPath id="clip_path_20">
            <path d="M 0 0 L 271 0 L 271 246 L 0 246 Z M 0 0"/>
        </clipPath>
        <clipPath id="clip_path_21">
            <path d="M 0 0 L 271 0 L 271 246 L 0 246 Z M 0 0"/>
        </clipPath>
        <clipPath id="clip_path_22">
            <path d="M 0 0 L 271 0 L 271 246 L 0 246 Z M 0 0"/>
        </clipPath>
        <clipPath id="clip_path_23">
            <path d="M 0 0 L 271 0 L 271 246 L 0 246 Z M 0 0"/>
        </clipPath>
        <clipPath id="clip_path_24">
            <path d="M 0 0 L 271 0 L 271 246 L 0 246 Z M 0 0"/>
        </clipPath>
        <clipPath id="clip_path_25">
            <path d="M 0 0 L 271 0 L 271 246 L 0 246 Z M 0 0"/>
        </clipPath>
        <clipPath id="clip_path_26">
            <path d="M 0 0 L 271 0 L 271 246 L 0 246 Z M 0 0"/>
        </clipPath>
        <clipPath id="clip_path_27">
            <path d="M 0 0 L 271 0 L 271 246 L 0 246 Z M 0 0"/>
        </clipPath>
        <clipPath id="clip_path_28">
            <path d="M 0 0 L 271 0 L 271 246 L 0 246 Z M 0 0"/>
        </clipPath>
        <clipPath id="clip_path_29">
            <path d="M 0 0 L 271 0 L 271 246 L 0 246 Z M 0 0"/>
        </clipPath>
        <clipPath id="clip_path_30">
            <path d="M 0 0 L 271 0 L 271 246 L 0 246 Z M 0 0"/>
        </clipPath>
        <clipPath id="clip_path_31">
            <path d="M 0 0 L 271 0 L 271 246 L 0 246 Z M 0 0"/>
        </clipPath>
        <clipPath id="clip_path_32">
            <path d="M 0 0 L 271 0 L 271 246 L 0 246 Z M 0 0"/>
        </clipPath>
        <clipPath id="clip_path_33">
            <path d="M 0 0 L 271 0 L 271 246 L 0 246 Z M 0 0"/>
        </clipPath>
        <clipPath id="clip_path_34">
            <path d="M 0 0 L 271 0 L 271 246 L 0 246 Z M 0 0"/>
        </clipPath>
        <clipPath id="clip_path_35">
            <path d="M 0 0 L 271 0 L 271 246 L 0 246 Z M 0 0"/>
        </clipPath>
        <clipPath id="clip_path_36">
            <path d="M 0 0 L 271 0 L 271 246 L 0 246 Z M 0 0"/>
        </clipPath>
        <clipPath id="clip_path_37">
            <path d="M 0 0 L 271 0 L 271 246 L 0 246 Z M 0 0"/>
        </clipPath>
        <clipPath id="clip_path_38">
            <path d="M 0 0 L 271 0 L 271 246 L 0 246 Z M 0 0"/>
        </clipPath>
        <clipPath id="clip_path_39">
            <path d="M 0 0 L 271 0 L 271 246 L 0 246 Z M 0 0"/>
        </clipPath>
    </defs>
    <g id="group">
        <path
            id="path"
            clip-path="url(#clip_path)"
            d="M 250.873 163.784 C 250.483 162.746 249.315 162.357 248.276 162.746 L 185.817 189.46 L 175.949 167.285 L 176.079 167.285 L 156.341 123.195 C 154.523 119.174 149.849 117.359 145.823 119.045 L 102.193 137.848 L 83.235 93.368 L 188.804 48.24 C 189.843 47.851 190.232 46.684 189.843 45.647 C 189.453 44.609 188.285 44.22 187.246 44.609 L 81.677 89.867 L 69.99 62.505 C 69.6 61.468 68.432 61.079 67.393 61.468 C 66.354 61.857 65.965 63.024 66.354 64.061 L 78.041 91.423 L 1.169 124.232 C 0.13 124.621 -0.26 125.788 0.13 126.826 C 0.39 127.604 1.169 127.993 1.948 127.993 C 2.207 127.993 2.467 127.993 2.727 127.863 L 79.599 95.054 L 98.687 139.404 L 20.906 172.861 C 19.867 173.25 19.478 174.418 19.867 175.455 C 20.257 176.492 21.426 176.881 22.464 176.492 L 147.381 122.805 C 149.459 121.898 151.926 122.935 152.835 124.88 L 168.028 158.726 C 168.028 158.856 168.158 158.986 168.158 159.115 L 170.885 165.21 L 28.178 225.122 C 27.139 225.511 26.749 226.678 27.139 227.715 C 27.399 228.493 28.178 228.882 28.957 228.882 C 29.217 228.882 29.476 228.882 29.736 228.753 L 172.443 168.841 L 182.311 191.016 L 62.329 242.239 C 61.29 242.628 60.9 243.795 61.29 244.833 C 61.55 245.611 62.329 246 63.108 246 C 63.368 246 63.627 246 63.887 245.87 L 184 194.647 L 189.713 207.615 C 189.973 208.393 190.752 208.782 191.531 208.782 C 191.791 208.782 192.05 208.782 192.31 208.653 C 193.349 208.264 193.738 207.096 193.349 206.059 L 187.635 193.091 L 250.094 166.377 C 250.873 165.859 251.263 164.821 250.873 163.784 Z"
            fill="#000000"
            fill-opacity="0.05"
            stroke-opacity="0.05"/>
        <path
            id="path_1"
            clip-path="url(#clip_path_1)"
            d="M 135.737 111.65 L 124.879 86.246 L 97.53 97.905 L 108.389 123.308 L 135.737 111.65 Z"
            fill="#000000"
            fill-opacity="0.05"
            stroke-opacity="0.05"/>
        <path
            id="path_2"
            clip-path="url(#clip_path_2)"
            d="M 169.65 97.227 L 158.791 71.824 L 131.443 83.483 L 142.301 108.886 L 169.65 97.227 Z"
            fill="#000000"
            fill-opacity="0.05"
            stroke-opacity="0.05"/>
        <path
            id="path_3"
            clip-path="url(#clip_path_3)"
            d="M 203.545 83.215 L 192.686 57.812 L 165.338 69.47 L 176.197 94.874 L 203.545 83.215 Z"
            fill="#000000"
            fill-opacity="0.05"
            stroke-opacity="0.05"/>
        <path
            id="path_4"
            clip-path="url(#clip_path_4)"
            d="M 90.094 187.958 L 79.235 162.555 L 51.887 174.214 L 62.745 199.617 L 90.094 187.958 Z"
            fill="#000000"
            fill-opacity="0.05"
            stroke-opacity="0.05"/>
        <path
            id="path_5"
            clip-path="url(#clip_path_5)"
            d="M 123.835 173.468 L 112.977 148.064 L 85.629 159.723 L 96.487 185.126 L 123.835 173.468 Z"
            fill="#000000"
            fill-opacity="0.05"
            stroke-opacity="0.05"/>
        <path
            id="path_6"
            clip-path="url(#clip_path_6)"
            d="M 157.731 159.456 L 146.872 134.052 L 119.524 145.711 L 130.383 171.114 L 157.731 159.456 Z"
            fill="#000000"
            fill-opacity="0.05"
            stroke-opacity="0.05"/>
        <path
            id="path_7"
            clip-path="url(#clip_path_7)"
            d="M 190.531 128.855 L 179.672 103.451 L 161.52 111.19 L 172.378 136.593 L 190.531 128.855 Z"
            fill="#000000"
            fill-opacity="0.05"
            stroke-opacity="0.05"/>
        <path
            id="path_8"
            clip-path="url(#clip_path_8)"
            d="M 197.146 143.92 L 192.762 133.663 L 174.609 141.401 L 178.994 151.658 L 197.146 143.92 Z"
            fill="#000000"
            fill-opacity="0.05"
            stroke-opacity="0.05"/>
        <path
            id="path_9"
            clip-path="url(#clip_path_9)"
            d="M 215.215 118.335 L 204.356 92.932 L 186.203 100.67 L 197.062 126.074 L 215.215 118.335 Z"
            fill="#000000"
            fill-opacity="0.05"
            stroke-opacity="0.05"/>
        <path
            id="path_10"
            clip-path="url(#clip_path_10)"
            d="M 221.71 133.451 L 217.326 123.194 L 199.174 130.933 L 203.558 141.19 L 221.71 133.451 Z"
            fill="#000000"
            fill-opacity="0.05"
            stroke-opacity="0.05"/>
        <path
            id="path_11"
            clip-path="url(#clip_path_11)"
            d="M 239.734 107.693 L 228.875 82.29 L 210.723 90.028 L 221.581 115.432 L 239.734 107.693 Z"
            fill="#000000"
            fill-opacity="0.05"
            stroke-opacity="0.05"/>
        <path
            id="path_12"
            clip-path="url(#clip_path_12)"
            d="M 246.349 122.758 L 241.965 112.501 L 223.812 120.24 L 228.197 130.497 L 246.349 122.758 Z"
            fill="#000000"
            fill-opacity="0.05"
            stroke-opacity="0.05"/>
        <path
            id="path_13"
            clip-path="url(#clip_path_13)"
            d="M 264.418 97.174 L 253.559 71.77 L 235.406 79.509 L 246.265 104.912 L 264.418 97.174 Z"
            fill="#000000"
            fill-opacity="0.05"
            stroke-opacity="0.05"/>
        <path
            id="path_14"
            clip-path="url(#clip_path_14)"
            d="M 271.033 112.239 L 266.648 101.982 L 248.496 109.72 L 252.88 119.977 L 271.033 112.239 Z"
            fill="#000000"
            fill-opacity="0.05"
            stroke-opacity="0.05"/>
        <path
            id="path_15"
            clip-path="url(#clip_path_15)"
            d="M 196.148 25.133 C 198.854 23.984 200.138 20.915 199.015 18.279 C 197.893 15.642 194.789 14.437 192.083 15.586 C 189.377 16.735 188.094 19.803 189.216 22.44 C 190.339 25.076 193.442 26.282 196.148 25.133 Z"
            fill="#000000"
            fill-opacity="0.05"
            stroke-opacity="0.05"/>
        <path
            id="path_16"
            clip-path="url(#clip_path_16)"
            d="M 202.523 40.187 C 205.229 39.038 206.512 35.969 205.39 33.333 C 204.267 30.696 201.164 29.49 198.458 30.639 C 195.752 31.788 194.468 34.857 195.591 37.494 C 196.713 40.13 199.817 41.336 202.523 40.187 Z"
            fill="#000000"
            fill-opacity="0.05"
            stroke-opacity="0.05"/>
        <path
            id="path_17"
            clip-path="url(#clip_path_17)"
            d="M 208.888 54.938 C 211.594 53.789 212.878 50.721 211.756 48.084 C 210.633 45.448 207.53 44.242 204.824 45.391 C 202.118 46.54 200.834 49.609 201.956 52.245 C 203.079 54.882 206.182 56.087 208.888 54.938 Z"
            fill="#000000"
            fill-opacity="0.05"
            stroke-opacity="0.05"/>
        <path
            id="path_18"
            clip-path="url(#clip_path_18)"
            d="M 215.263 69.992 C 217.969 68.843 219.253 65.774 218.13 63.138 C 217.008 60.501 213.904 59.296 211.198 60.445 C 208.492 61.594 207.209 64.662 208.331 67.299 C 209.454 69.935 212.557 71.141 215.263 69.992 Z"
            fill="#000000"
            fill-opacity="0.05"
            stroke-opacity="0.05"/>
        <path
            id="path_19"
            clip-path="url(#clip_path_19)"
            d="M 212.525 24.736 C 215.231 23.587 216.515 20.519 215.392 17.882 C 214.27 15.246 211.166 14.04 208.46 15.189 C 205.754 16.338 204.471 19.407 205.593 22.043 C 206.716 24.68 209.819 25.885 212.525 24.736 Z"
            fill="#000000"
            fill-opacity="0.05"
            stroke-opacity="0.05"/>
        <path
            id="path_20"
            clip-path="url(#clip_path_20)"
            d="M 218.9 39.79 C 221.606 38.641 222.889 35.572 221.767 32.936 C 220.644 30.3 217.541 29.094 214.835 30.243 C 212.129 31.392 210.845 34.461 211.968 37.097 C 213.09 39.734 216.194 40.939 218.9 39.79 Z"
            fill="#000000"
            fill-opacity="0.05"
            stroke-opacity="0.05"/>
        <path
            id="path_21"
            clip-path="url(#clip_path_21)"
            d="M 225.265 54.542 C 227.971 53.393 229.255 50.324 228.133 47.688 C 227.01 45.051 223.907 43.845 221.201 44.994 C 218.495 46.143 217.211 49.212 218.333 51.848 C 219.456 54.485 222.559 55.691 225.265 54.542 Z"
            fill="#000000"
            fill-opacity="0.05"
            stroke-opacity="0.05"/>
        <path
            id="path_22"
            clip-path="url(#clip_path_22)"
            d="M 231.64 69.595 C 234.346 68.447 235.63 65.378 234.507 62.741 C 233.385 60.105 230.281 58.899 227.575 60.048 C 224.869 61.197 223.586 64.266 224.708 66.902 C 225.831 69.539 228.934 70.744 231.64 69.595 Z"
            fill="#000000"
            fill-opacity="0.05"
            stroke-opacity="0.05"/>
        <path
            id="path_23"
            clip-path="url(#clip_path_23)"
            d="M 224.229 13.308 C 226.935 12.159 228.219 9.09 227.096 6.453 C 225.974 3.817 222.87 2.611 220.164 3.76 C 217.458 4.909 216.174 7.978 217.297 10.614 C 218.419 13.251 221.523 14.457 224.229 13.308 Z"
            fill="#000000"
            fill-opacity="0.05"
            stroke-opacity="0.05"/>
        <path
            id="path_24"
            clip-path="url(#clip_path_24)"
            d="M 230.553 28.242 C 233.259 27.093 234.542 24.024 233.42 21.388 C 232.297 18.751 229.194 17.546 226.488 18.695 C 223.782 19.844 222.498 22.913 223.621 25.549 C 224.743 28.185 227.847 29.391 230.553 28.242 Z"
            fill="#000000"
            fill-opacity="0.05"
            stroke-opacity="0.05"/>
        <path
            id="path_25"
            clip-path="url(#clip_path_25)"
            d="M 236.799 43.044 C 239.505 41.895 240.789 38.827 239.666 36.19 C 238.544 33.554 235.44 32.348 232.734 33.497 C 230.028 34.646 228.744 37.715 229.867 40.351 C 230.989 42.987 234.093 44.193 236.799 43.044 Z"
            fill="#000000"
            fill-opacity="0.05"
            stroke-opacity="0.05"/>
        <path
            id="path_26"
            clip-path="url(#clip_path_26)"
            d="M 243.293 58.047 C 245.999 56.898 247.283 53.83 246.16 51.193 C 245.038 48.557 241.934 47.351 239.228 48.5 C 236.522 49.649 235.239 52.718 236.361 55.354 C 237.483 57.991 240.587 59.196 243.293 58.047 Z"
            fill="#000000"
            fill-opacity="0.05"
            stroke-opacity="0.05"/>
        <path
            id="path_27"
            clip-path="url(#clip_path_27)"
            d="M 206.409 9.962 C 209.115 8.813 210.398 5.744 209.276 3.108 C 208.153 0.471 205.05 -0.735 202.344 0.414 C 199.638 1.563 198.354 4.632 199.477 7.269 C 200.599 9.905 203.703 11.111 206.409 9.962 Z"
            fill="#000000"
            fill-opacity="0.05"
            stroke-opacity="0.05"/>
        <path
            id="path_28"
            clip-path="url(#clip_path_28)"
            d="M 37.138 142.646 L 34.411 136.162 C 32.203 130.975 34.67 124.88 39.864 122.676 L 67.003 111.134 C 72.197 108.93 78.3 111.394 80.508 116.581 L 83.235 123.065 C 85.442 128.252 82.975 134.347 77.781 136.551 L 50.642 148.093 C 45.448 150.297 39.345 147.833 37.138 142.646 Z"
            fill="#000000"
            fill-opacity="0.05"
            stroke-opacity="0.05"/>
        <path
            id="path_29"
            clip-path="url(#clip_path_29)"
            d="M 8.44 143.943 L 6.752 140.053 C 6.103 138.497 6.752 136.681 8.44 136.033 L 22.854 129.938 C 24.412 129.289 26.23 129.938 26.879 131.624 L 28.567 135.514 C 29.217 137.07 28.567 138.886 26.879 139.534 L 12.466 145.629 C 10.908 146.277 9.09 145.499 8.44 143.943 Z"
            fill="#000000"
            fill-opacity="0.05"
            stroke-opacity="0.05"/>
        <path
            id="path_30"
            clip-path="url(#clip_path_30)"
            d="M 15.193 159.764 L 13.505 155.873 C 12.855 154.317 13.505 152.502 15.193 151.853 L 29.606 145.759 C 31.164 145.11 32.982 145.759 33.632 147.444 L 35.32 151.335 C 35.969 152.891 35.32 154.706 33.632 155.355 L 19.218 161.45 C 17.66 161.968 15.842 161.32 15.193 159.764 Z"
            fill="#000000"
            fill-opacity="0.05"
            stroke-opacity="0.05"/>
        <path
            id="path_31"
            clip-path="url(#clip_path_31)"
            d="M 29.087 191.924 L 27.399 188.034 C 26.749 186.478 27.399 184.662 29.087 184.014 L 43.5 177.919 C 45.058 177.27 46.876 177.919 47.526 179.605 L 49.214 183.495 C 49.863 185.051 49.214 186.867 47.526 187.515 L 33.112 193.61 C 31.554 194.129 29.736 193.48 29.087 191.924 Z"
            fill="#000000"
            fill-opacity="0.05"
            stroke-opacity="0.05"/>
        <path
            id="path_32"
            clip-path="url(#clip_path_32)"
            d="M 35.839 207.615 L 34.151 203.725 C 33.502 202.169 34.151 200.353 35.839 199.705 L 50.252 193.61 C 51.811 192.962 53.629 193.61 54.278 195.296 L 55.966 199.186 C 56.615 200.742 55.966 202.558 54.278 203.206 L 39.864 209.301 C 38.306 209.949 36.488 209.171 35.839 207.615 Z"
            fill="#000000"
            fill-opacity="0.05"
            stroke-opacity="0.05"/>
        <path
            id="path_33"
            clip-path="url(#clip_path_33)"
            d="M 4.675 202.428 L 2.987 198.538 C 2.337 196.982 2.987 195.166 4.675 194.518 L 19.088 188.423 C 20.646 187.774 22.464 188.423 23.114 190.109 L 24.802 193.999 C 25.451 195.555 24.802 197.371 23.114 198.019 L 8.7 204.114 C 7.142 204.762 5.324 204.114 4.675 202.428 Z"
            fill="#000000"
            fill-opacity="0.05"
            stroke-opacity="0.05"/>
        <path
            id="path_34"
            clip-path="url(#clip_path_34)"
            d="M 11.427 218.249 L 9.739 214.358 C 9.09 212.802 9.739 210.987 11.427 210.338 L 25.84 204.244 C 27.399 203.595 29.217 204.244 29.866 205.929 L 31.554 209.82 C 32.203 211.376 31.554 213.191 29.866 213.84 L 15.582 219.935 C 13.894 220.583 12.076 219.805 11.427 218.249 Z"
            fill="#000000"
            fill-opacity="0.05"
            stroke-opacity="0.05"/>
        <path
            id="path_35"
            clip-path="url(#clip_path_35)"
            d="M 148.68 194.647 L 146.992 190.757 C 146.343 189.201 146.992 187.385 148.68 186.737 L 163.093 180.642 C 164.652 179.994 166.47 180.642 167.119 182.328 L 168.807 186.218 C 169.456 187.774 168.807 189.59 167.119 190.238 L 152.705 196.333 C 151.147 196.982 149.329 196.203 148.68 194.647 Z"
            fill="#000000"
            fill-opacity="0.05"
            stroke-opacity="0.05"/>
        <path
            id="path_36"
            clip-path="url(#clip_path_36)"
            d="M 213.865 165.47 L 212.177 161.579 C 211.528 160.023 212.177 158.208 213.865 157.559 L 228.279 151.464 C 229.837 150.816 231.655 151.464 232.304 153.15 L 233.992 157.041 C 234.642 158.597 233.992 160.412 232.304 161.061 L 217.891 167.155 C 216.333 167.804 214.515 167.026 213.865 165.47 Z"
            fill="#000000"
            fill-opacity="0.05"
            stroke-opacity="0.05"/>
        <path
            id="path_37"
            clip-path="url(#clip_path_37)"
            d="M 189.583 176.103 L 187.895 172.213 C 187.246 170.657 187.895 168.841 189.583 168.193 L 203.997 162.098 C 205.555 161.45 207.373 162.098 208.022 163.784 L 209.71 167.674 C 210.359 169.23 209.71 171.046 208.022 171.694 L 193.609 177.789 C 192.05 178.438 190.232 177.659 189.583 176.103 Z"
            fill="#000000"
            fill-opacity="0.05"
            stroke-opacity="0.05"/>
        <path
            id="path_38"
            clip-path="url(#clip_path_38)"
            d="M 154.913 19.711 C 148.161 19.711 142.707 25.158 142.707 31.901 C 142.707 38.644 154.913 52.39 154.913 52.39 C 154.913 52.39 167.119 38.644 167.119 31.901 C 167.119 25.158 161.665 19.711 154.913 19.711 Z M 154.913 37.218 C 151.796 37.218 149.199 34.624 149.199 31.512 C 149.199 28.4 151.796 25.806 154.913 25.806 C 158.029 25.806 160.626 28.4 160.626 31.512 C 160.626 34.754 158.159 37.218 154.913 37.218 Z"
            fill="#d82228"/>
        <path
            id="path_39"
            clip-path="url(#clip_path_39)"
            d="M 59.732 216.563 C 58.693 216.563 57.784 215.915 57.394 215.007 C 56.875 213.71 57.394 212.154 58.823 211.635 L 60.641 210.857 C 61.939 210.338 63.497 210.857 64.017 212.284 C 64.536 213.58 64.017 215.137 62.588 215.655 L 60.771 216.433 C 60.381 216.433 60.121 216.563 59.732 216.563 Z M 73.496 210.727 C 72.457 210.727 71.548 210.079 71.159 209.171 C 70.639 207.875 71.159 206.318 72.587 205.8 L 74.405 205.022 C 75.703 204.503 77.262 205.022 77.781 206.448 C 78.3 207.745 77.781 209.301 76.353 209.82 L 74.535 210.598 C 74.145 210.598 73.756 210.727 73.496 210.727 Z M 87.26 204.892 C 86.221 204.892 85.312 204.244 84.923 203.336 C 84.404 202.039 84.923 200.483 86.351 199.964 L 88.169 199.186 C 89.468 198.667 91.026 199.186 91.545 200.613 C 92.065 201.909 91.545 203.465 90.117 203.984 L 88.299 204.762 C 87.909 204.762 87.52 204.892 87.26 204.892 Z M 100.895 198.927 C 99.856 198.927 98.947 198.278 98.557 197.371 C 98.038 196.074 98.557 194.518 99.986 193.999 L 101.804 193.221 C 103.102 192.702 104.66 193.221 105.18 194.647 C 105.699 195.944 105.18 197.5 103.751 198.019 L 101.933 198.797 C 101.674 198.927 101.284 198.927 100.895 198.927 Z M 114.659 193.091 C 113.62 193.091 112.711 192.443 112.322 191.535 C 111.802 190.238 112.322 188.682 113.75 188.163 L 115.568 187.385 C 116.866 186.867 118.425 187.385 118.944 188.812 C 119.463 190.109 118.944 191.665 117.516 192.183 L 115.698 192.962 C 115.308 193.091 115.048 193.091 114.659 193.091 Z M 128.423 187.256 C 127.384 187.256 126.475 186.607 126.086 185.7 C 125.566 184.403 126.086 182.847 127.514 182.328 L 129.332 181.55 C 130.631 181.031 132.189 181.55 132.708 182.976 C 133.228 184.273 132.708 185.829 131.28 186.348 L 129.462 187.126 C 129.072 187.126 128.683 187.256 128.423 187.256 Z M 142.187 181.42 C 141.149 181.42 140.24 180.772 139.85 179.864 C 139.331 178.567 139.85 177.011 141.278 176.492 L 143.096 175.714 C 144.395 175.196 145.953 175.714 146.472 177.141 C 146.992 178.438 146.472 179.994 145.044 180.512 L 143.226 181.29 C 142.837 181.29 142.447 181.42 142.187 181.42 Z M 155.822 175.585 C 154.783 175.585 153.874 174.936 153.484 174.028 C 152.965 172.732 153.484 171.176 154.913 170.657 L 156.731 169.879 C 158.029 169.36 159.587 169.879 160.107 171.305 C 160.626 172.602 160.107 174.158 158.678 174.677 L 156.861 175.455 C 156.601 175.455 156.211 175.585 155.822 175.585 Z M 169.586 169.619 C 168.547 169.619 167.638 168.971 167.249 168.063 C 166.729 166.766 167.249 165.21 168.677 164.692 L 170.495 163.914 C 171.793 163.395 173.352 163.914 173.871 165.34 C 174.391 166.637 173.871 168.193 172.443 168.712 L 170.625 169.49 C 170.235 169.619 169.976 169.619 169.586 169.619 Z M 168.028 157.559 C 166.989 157.559 166.08 156.911 165.69 156.003 L 164.911 154.188 C 164.392 152.891 165.041 151.335 166.34 150.816 C 167.638 150.297 169.196 150.946 169.716 152.243 L 170.495 154.058 C 171.014 155.355 170.365 156.911 169.067 157.43 C 168.677 157.559 168.287 157.559 168.028 157.559 Z M 162.184 143.813 C 161.146 143.813 160.237 143.165 159.847 142.257 L 159.068 140.442 C 158.549 139.145 159.068 137.589 160.496 137.07 C 161.795 136.551 163.353 137.07 163.873 138.497 L 164.652 140.312 C 165.171 141.609 164.652 143.165 163.223 143.684 C 162.834 143.813 162.574 143.813 162.184 143.813 Z M 105.18 141.35 C 104.141 141.35 103.232 140.701 102.842 139.793 C 102.323 138.497 102.842 136.94 104.141 136.422 L 105.959 135.644 C 107.257 135.125 108.816 135.644 109.335 136.94 C 109.854 138.237 109.335 139.793 108.036 140.312 L 106.219 141.09 C 105.829 141.22 105.439 141.35 105.18 141.35 Z M 118.814 135.384 C 117.775 135.384 116.866 134.736 116.477 133.828 C 115.957 132.531 116.477 130.975 117.775 130.457 L 119.593 129.678 C 120.892 129.16 122.45 129.678 122.969 130.975 C 123.489 132.272 122.969 133.828 121.671 134.347 L 119.853 135.125 C 119.593 135.384 119.204 135.384 118.814 135.384 Z M 97.908 134.866 C 96.869 134.866 95.96 134.217 95.571 133.309 L 94.792 131.494 C 94.272 130.197 94.921 128.641 96.22 128.122 C 97.518 127.604 99.077 128.252 99.596 129.549 L 100.375 131.364 C 100.895 132.661 100.245 134.217 98.947 134.736 C 98.557 134.866 98.298 134.866 97.908 134.866 Z M 156.471 130.067 C 155.432 130.067 154.523 129.419 154.134 128.511 L 153.355 126.696 C 152.835 125.399 153.484 123.843 154.783 123.324 C 156.081 122.805 157.64 123.454 158.159 124.751 L 158.938 126.566 C 159.458 127.863 158.808 129.419 157.51 129.938 C 157.12 130.067 156.731 130.067 156.471 130.067 Z M 132.578 129.549 C 131.54 129.549 130.631 128.9 130.241 127.993 C 129.722 126.696 130.241 125.14 131.54 124.621 L 133.357 123.843 C 134.656 123.324 136.214 123.843 136.734 125.14 C 137.253 126.436 136.734 127.993 135.435 128.511 L 133.617 129.289 C 133.228 129.419 132.968 129.549 132.578 129.549 Z M 146.213 123.584 C 145.174 123.584 144.265 122.935 143.875 122.027 C 143.356 120.731 143.875 119.174 145.174 118.656 L 146.992 117.878 C 148.29 117.359 149.849 117.878 150.368 119.174 C 150.887 120.471 150.368 122.027 149.069 122.546 L 147.252 123.324 C 146.992 123.454 146.602 123.584 146.213 123.584 Z M 92.195 121.12 C 91.156 121.12 90.247 120.471 89.857 119.564 L 89.078 117.748 C 88.559 116.451 89.208 114.895 90.507 114.376 C 91.805 113.858 93.363 114.506 93.883 115.803 L 94.662 117.618 C 95.181 118.915 94.532 120.471 93.233 120.99 C 92.844 121.12 92.454 121.12 92.195 121.12 Z M 86.351 107.374 C 85.312 107.374 84.403 106.725 84.014 105.818 L 83.235 104.002 C 82.715 102.705 83.365 101.149 84.663 100.63 C 85.962 100.112 87.52 100.76 88.039 102.057 L 88.818 103.872 C 89.338 105.169 88.689 106.725 87.39 107.244 C 87.001 107.374 86.741 107.374 86.351 107.374 Z M 85.312 93.498 C 84.663 93.498 84.144 93.239 83.624 92.85 C 82.586 91.942 82.456 90.256 83.365 89.219 C 83.884 88.57 84.663 88.052 85.312 87.533 C 86.481 86.755 88.169 87.014 88.948 88.181 C 89.727 89.348 89.468 91.034 88.299 91.812 C 87.909 92.072 87.65 92.331 87.39 92.72 C 86.741 93.239 86.091 93.498 85.312 93.498 Z M 98.687 87.014 C 97.648 87.014 96.739 86.366 96.35 85.458 C 95.83 84.161 96.35 82.605 97.778 82.087 L 99.596 81.308 C 100.895 80.79 102.453 81.308 102.972 82.735 C 103.492 84.032 102.972 85.588 101.544 86.106 L 99.726 86.885 C 99.466 87.014 99.077 87.014 98.687 87.014 Z M 112.451 81.179 C 111.413 81.179 110.504 80.53 110.114 79.623 C 109.595 78.326 110.114 76.77 111.542 76.251 L 113.36 75.473 C 114.659 74.954 116.217 75.473 116.736 76.899 C 117.256 78.196 116.736 79.752 115.308 80.271 L 113.49 81.049 C 113.101 81.179 112.841 81.179 112.451 81.179 Z M 126.216 75.343 C 125.177 75.343 124.268 74.695 123.878 73.787 C 123.359 72.49 123.878 70.934 125.307 70.415 L 127.125 69.637 C 128.423 69.119 129.981 69.637 130.501 71.064 C 131.02 72.361 130.501 73.917 129.072 74.435 L 127.254 75.214 C 126.865 75.343 126.475 75.343 126.216 75.343 Z M 139.98 69.508 C 138.941 69.508 138.032 68.859 137.643 67.951 C 137.123 66.655 137.643 65.099 139.071 64.58 L 140.889 63.802 C 142.187 63.283 143.746 63.802 144.265 65.228 C 144.784 66.525 144.265 68.081 142.837 68.6 L 141.019 69.378 C 140.629 69.508 140.24 69.508 139.98 69.508 Z M 153.614 63.672 C 152.575 63.672 151.667 63.024 151.277 62.116 C 150.758 60.819 151.277 59.263 152.705 58.744 L 154.523 57.966 C 155.822 57.447 157.38 57.966 157.899 59.393 C 158.419 60.689 157.899 62.246 156.471 62.764 L 154.653 63.542 C 154.393 63.542 154.004 63.672 153.614 63.672 Z"
            fill="#000000"/>
    </g>
</svg>
