<svg
    xmlns="http://www.w3.org/2000/svg"
    viewBox="0 0 22 29"
    id="vector">
    <path
        id="path"
        d="M 18 6.3 C 18.2 6.9 18.3 7.5 18.3 8.1 L 18.3 22.9 C 18.3 25.8 16 28.1 13.1 28.1 L 5.7 28.1 C 2.8 28.1 0.5 25.8 0.5 22.9 L 0.5 8 C 0.5 5.1 2.8 2.8 5.7 2.8 L 13.1 2.8 C 13.9 2.8 14.6 3 15.3 3.3"
        fill="#00000000"
        stroke="#060606"
        stroke-width="1"
        stroke-linecap="round"/>
    <path
        id="path_1"
        d="M 7.623 21.994 L 6.823 21.994 L 4.769 18.725 L 4.769 21.994 L 3.969 21.994 L 3.969 17.387 L 4.769 17.387 L 6.829 20.668 L 6.829 17.387 L 7.623 17.387 L 7.623 21.994 Z M 11.224 20.042 L 9.37 20.042 L 9.37 21.994 L 8.57 21.994 L 8.57 17.387 L 11.496 17.387 L 11.496 18.032 L 9.37 18.032 L 9.37 19.402 L 11.224 19.402 L 11.224 20.042 Z M 15.648 20.494 C 15.601 20.985 15.42 21.369 15.103 21.646 C 14.787 21.92 14.366 22.057 13.841 22.057 C 13.474 22.057 13.15 21.971 12.87 21.798 C 12.591 21.623 12.376 21.375 12.224 21.054 C 12.072 20.733 11.993 20.361 11.987 19.937 L 11.987 19.507 C 11.987 19.072 12.064 18.689 12.218 18.358 C 12.372 18.027 12.592 17.772 12.879 17.593 C 13.168 17.413 13.501 17.324 13.879 17.324 C 14.387 17.324 14.796 17.462 15.107 17.738 C 15.417 18.015 15.597 18.405 15.648 18.909 L 14.85 18.909 C 14.812 18.578 14.715 18.339 14.559 18.194 C 14.405 18.046 14.178 17.972 13.879 17.972 C 13.531 17.972 13.263 18.1 13.075 18.355 C 12.89 18.608 12.795 18.981 12.79 19.472 L 12.79 19.88 C 12.79 20.378 12.879 20.758 13.056 21.019 C 13.236 21.281 13.497 21.412 13.841 21.412 C 14.155 21.412 14.391 21.341 14.55 21.2 C 14.708 21.058 14.808 20.823 14.85 20.494 L 15.648 20.494 Z"
        fill="#060606"/>
    <path
        id="path_2"
        d="M 17 2.5 C 18.2 2.5 19.1 3.5 19.1 4.6"
        fill="#00000000"
        stroke="#060606"
        stroke-width="1"
        stroke-linecap="round"/>
    <path
        id="path_3"
        d="M 17 0.5 C 19.3 0.5 21.1 2.4 21.1 4.6"
        fill="#00000000"
        stroke="#060606"
        stroke-width="1"
        stroke-linecap="round"/>
    <path
        id="path_4"
        d="M 17 5.2 C 17.331 5.2 17.6 4.931 17.6 4.6 C 17.6 4.269 17.331 4 17 4 C 16.669 4 16.4 4.269 16.4 4.6 C 16.4 4.931 16.669 5.2 17 5.2 Z"
        fill="#060606"/>
    <path
        id="path_5"
        d="M 6.8 6 L 12.5 6"
        fill="#00000000"
        stroke="#060606"
        stroke-width="1"
        stroke-linecap="round"/>
</svg>
